<?xml version="1.0" encoding="UTF-8"?>
<svg xmlns="http://www.w3.org/2000/svg" xmlns:xlink="http://www.w3.org/1999/xlink" width="576pt" height="576pt" viewBox="0 0 576 576">
<defs>
<g>
<g id="glyph-0-0">
<path d="M 6.625 -8.75 L 6.625 -2.609375 C 6.625 -1.421875 5.765625 -0.703125 4.375 -0.703125 C 3.71875 -0.703125 3.1875 -0.859375 2.765625 -1.15625 C 2.34375 -1.5 2.140625 -1.9375 2.140625 -2.609375 L 2.140625 -8.75 L 1.015625 -8.75 L 1.015625 -2.609375 C 1.015625 -0.828125 2.296875 0.28125 4.375 0.28125 C 6.421875 0.28125 7.734375 -0.859375 7.734375 -2.609375 L 7.734375 -8.75 Z M 6.625 -8.75 "/>
</g>
<g id="glyph-0-1">
<path d="M 5.25 -4.53125 C 5.25 -5.765625 4.421875 -6.46875 2.96875 -6.46875 C 1.515625 -6.46875 0.5625 -5.71875 0.5625 -4.546875 C 0.5625 -3.5625 1.0625 -3.09375 2.5625 -2.734375 L 3.484375 -2.515625 C 4.1875 -2.34375 4.46875 -2.09375 4.46875 -1.640625 C 4.46875 -1.046875 3.875 -0.640625 3 -0.640625 C 2.453125 -0.640625 2 -0.796875 1.75 -1.0625 C 1.59375 -1.25 1.53125 -1.421875 1.46875 -1.875 L 0.40625 -1.875 C 0.453125 -0.421875 1.265625 0.28125 2.921875 0.28125 C 4.5 0.28125 5.515625 -0.5 5.515625 -1.71875 C 5.515625 -2.65625 4.984375 -3.171875 3.734375 -3.46875 L 2.765625 -3.703125 C 1.953125 -3.890625 1.609375 -4.15625 1.609375 -4.59375 C 1.609375 -5.1875 2.125 -5.546875 2.9375 -5.546875 C 3.75 -5.546875 4.171875 -5.203125 4.203125 -4.53125 Z M 5.25 -4.53125 "/>
</g>
<g id="glyph-0-2">
<path d="M 6.15625 -2.8125 C 6.15625 -3.765625 6.078125 -4.34375 5.90625 -4.8125 C 5.5 -5.84375 4.53125 -6.46875 3.359375 -6.46875 C 1.609375 -6.46875 0.484375 -5.140625 0.484375 -3.0625 C 0.484375 -0.984375 1.5625 0.28125 3.34375 0.28125 C 4.78125 0.28125 5.765625 -0.546875 6.03125 -1.90625 L 5.015625 -1.90625 C 4.734375 -1.078125 4.171875 -0.640625 3.375 -0.640625 C 2.734375 -0.640625 2.203125 -0.9375 1.859375 -1.46875 C 1.625 -1.828125 1.53125 -2.1875 1.53125 -2.8125 Z M 1.546875 -3.625 C 1.625 -4.78125 2.34375 -5.546875 3.34375 -5.546875 C 4.375 -5.546875 5.078125 -4.75 5.078125 -3.625 Z M 1.546875 -3.625 "/>
</g>
<g id="glyph-0-3">
<path d="M 5.9375 -8.75 L 4.9375 -8.75 L 4.9375 -5.5 C 4.53125 -6.125 3.859375 -6.46875 3.015625 -6.46875 C 1.375 -6.46875 0.3125 -5.15625 0.3125 -3.15625 C 0.3125 -1.03125 1.34375 0.28125 3.046875 0.28125 C 3.90625 0.28125 4.515625 -0.046875 5.046875 -0.828125 L 5.046875 0 L 5.9375 0 Z M 3.1875 -5.53125 C 4.265625 -5.53125 4.9375 -4.578125 4.9375 -3.078125 C 4.9375 -1.625 4.25 -0.65625 3.1875 -0.65625 C 2.09375 -0.65625 1.359375 -1.625 1.359375 -3.09375 C 1.359375 -4.5625 2.09375 -5.53125 3.1875 -5.53125 Z M 3.1875 -5.53125 "/>
</g>
<g id="glyph-0-4">
<path d="M 2.203125 -3.703125 L 4.953125 -3.703125 C 5.640625 -3.703125 6.1875 -3.90625 6.640625 -4.328125 C 7.171875 -4.8125 7.40625 -5.375 7.40625 -6.1875 C 7.40625 -7.828125 6.4375 -8.75 4.703125 -8.75 L 1.09375 -8.75 L 1.09375 0 L 2.203125 0 Z M 2.203125 -4.6875 L 2.203125 -7.765625 L 4.53125 -7.765625 C 5.609375 -7.765625 6.234375 -7.1875 6.234375 -6.234375 C 6.234375 -5.265625 5.609375 -4.6875 4.53125 -4.6875 Z M 2.203125 -4.6875 "/>
</g>
<g id="glyph-0-5">
<path d="M 0.84375 -8.75 L 0.84375 0 L 1.84375 0 L 1.84375 -3.46875 C 1.84375 -4.75 2.515625 -5.59375 3.546875 -5.59375 C 3.875 -5.59375 4.1875 -5.5 4.421875 -5.3125 C 4.71875 -5.09375 4.84375 -4.796875 4.84375 -4.359375 L 4.84375 0 L 5.828125 0 L 5.828125 -4.75 C 5.828125 -5.8125 5.078125 -6.46875 3.859375 -6.46875 C 2.96875 -6.46875 2.421875 -6.1875 1.84375 -5.421875 L 1.84375 -8.75 Z M 0.84375 -8.75 "/>
</g>
<g id="glyph-0-6">
<path d="M 3.265625 -6.46875 C 1.484375 -6.46875 0.4375 -5.203125 0.4375 -3.09375 C 0.4375 -0.96875 1.484375 0.28125 3.28125 0.28125 C 5.046875 0.28125 6.125 -0.984375 6.125 -3.046875 C 6.125 -5.234375 5.09375 -6.46875 3.265625 -6.46875 Z M 3.28125 -5.546875 C 4.40625 -5.546875 5.078125 -4.625 5.078125 -3.0625 C 5.078125 -1.578125 4.375 -0.640625 3.28125 -0.640625 C 2.15625 -0.640625 1.46875 -1.578125 1.46875 -3.09375 C 1.46875 -4.625 2.15625 -5.546875 3.28125 -5.546875 Z M 3.28125 -5.546875 "/>
</g>
<g id="glyph-0-7">
<path d="M 0.84375 -6.28125 L 0.84375 0 L 1.84375 0 L 1.84375 -3.46875 C 1.84375 -4.75 2.515625 -5.59375 3.546875 -5.59375 C 4.34375 -5.59375 4.84375 -5.109375 4.84375 -4.359375 L 4.84375 0 L 5.84375 0 L 5.84375 -4.75 C 5.84375 -5.796875 5.0625 -6.46875 3.859375 -6.46875 C 2.921875 -6.46875 2.3125 -6.109375 1.765625 -5.234375 L 1.765625 -6.28125 Z M 0.84375 -6.28125 "/>
</g>
<g id="glyph-0-8">
<path d="M 4.671875 -8.890625 C 2.15625 -8.890625 0.453125 -7.046875 0.453125 -4.3125 C 0.453125 -1.5625 2.140625 0.28125 4.6875 0.28125 C 5.75 0.28125 6.6875 -0.046875 7.390625 -0.640625 C 8.34375 -1.453125 8.90625 -2.8125 8.90625 -4.234375 C 8.90625 -7.0625 7.234375 -8.890625 4.671875 -8.890625 Z M 4.671875 -7.90625 C 6.5625 -7.90625 7.78125 -6.484375 7.78125 -4.265625 C 7.78125 -2.140625 6.53125 -0.703125 4.6875 -0.703125 C 2.8125 -0.703125 1.578125 -2.140625 1.578125 -4.3125 C 1.578125 -6.46875 2.8125 -7.90625 4.671875 -7.90625 Z M 4.671875 -7.90625 "/>
</g>
<g id="glyph-0-9">
<path d="M 0.828125 -6.28125 L 0.828125 0 L 1.84375 0 L 1.84375 -3.265625 C 1.84375 -4.78125 2.46875 -5.453125 3.859375 -5.40625 L 3.859375 -6.4375 C 3.6875 -6.453125 3.59375 -6.46875 3.46875 -6.46875 C 2.8125 -6.46875 2.328125 -6.078125 1.75 -5.140625 L 1.75 -6.28125 Z M 0.828125 -6.28125 "/>
</g>
<g id="glyph-0-10">
<path d="M 4.84375 -6.28125 L 4.84375 -5.375 C 4.34375 -6.125 3.796875 -6.46875 3 -6.46875 C 1.46875 -6.46875 0.421875 -5.046875 0.421875 -3.03125 C 0.421875 -1.984375 0.671875 -1.21875 1.21875 -0.578125 C 1.6875 -0.03125 2.28125 0.28125 2.921875 0.28125 C 3.6875 0.28125 4.21875 -0.0625 4.75 -0.859375 L 4.75 -0.53125 C 4.75 1.15625 4.28125 1.78125 3.03125 1.78125 C 2.1875 1.78125 1.734375 1.4375 1.640625 0.71875 L 0.625 0.71875 C 0.71875 1.890625 1.640625 2.609375 3.015625 2.609375 C 3.9375 2.609375 4.703125 2.3125 5.109375 1.8125 C 5.59375 1.21875 5.765625 0.4375 5.765625 -1.03125 L 5.765625 -6.28125 Z M 3.09375 -5.546875 C 4.15625 -5.546875 4.75 -4.65625 4.75 -3.0625 C 4.75 -1.53125 4.140625 -0.640625 3.09375 -0.640625 C 2.0625 -0.640625 1.46875 -1.546875 1.46875 -3.09375 C 1.46875 -4.625 2.0625 -5.546875 3.09375 -5.546875 Z M 3.09375 -5.546875 "/>
</g>
<g id="glyph-0-11">
<path d="M 6.421875 -0.59375 C 6.3125 -0.5625 6.265625 -0.5625 6.203125 -0.5625 C 5.859375 -0.5625 5.65625 -0.75 5.65625 -1.0625 L 5.65625 -4.75 C 5.65625 -5.875 4.84375 -6.46875 3.296875 -6.46875 C 2.375 -6.46875 1.640625 -6.203125 1.21875 -5.734375 C 0.921875 -5.40625 0.796875 -5.046875 0.78125 -4.421875 L 1.78125 -4.421875 C 1.875 -5.203125 2.328125 -5.546875 3.265625 -5.546875 C 4.171875 -5.546875 4.671875 -5.203125 4.671875 -4.609375 L 4.671875 -4.34375 C 4.65625 -3.90625 4.4375 -3.75 3.625 -3.640625 C 2.203125 -3.46875 1.984375 -3.421875 1.609375 -3.265625 C 0.875 -2.953125 0.5 -2.40625 0.5 -1.578125 C 0.5 -0.4375 1.296875 0.28125 2.5625 0.28125 C 3.359375 0.28125 4 0 4.703125 -0.640625 C 4.78125 0 5.09375 0.28125 5.734375 0.28125 C 5.953125 0.28125 6.078125 0.25 6.421875 0.171875 Z M 4.671875 -1.984375 C 4.671875 -1.640625 4.578125 -1.4375 4.265625 -1.15625 C 3.859375 -0.796875 3.375 -0.59375 2.78125 -0.59375 C 2 -0.59375 1.546875 -0.96875 1.546875 -1.609375 C 1.546875 -2.265625 1.984375 -2.609375 3.0625 -2.765625 C 4.125 -2.90625 4.328125 -2.953125 4.671875 -3.109375 Z M 4.671875 -1.984375 "/>
</g>
<g id="glyph-0-12">
<path d="M 1.796875 -6.28125 L 0.796875 -6.28125 L 0.796875 0 L 1.796875 0 Z M 1.796875 -8.75 L 0.796875 -8.75 L 0.796875 -7.484375 L 1.796875 -7.484375 Z M 1.796875 -8.75 "/>
</g>
<g id="glyph-0-13">
<path d="M 3.046875 -6.28125 L 2.015625 -6.28125 L 2.015625 -8.015625 L 1.015625 -8.015625 L 1.015625 -6.28125 L 0.171875 -6.28125 L 0.171875 -5.46875 L 1.015625 -5.46875 L 1.015625 -0.71875 C 1.015625 -0.078125 1.453125 0.28125 2.234375 0.28125 C 2.5 0.28125 2.71875 0.25 3.046875 0.1875 L 3.046875 -0.640625 C 2.90625 -0.609375 2.765625 -0.59375 2.5625 -0.59375 C 2.140625 -0.59375 2.015625 -0.71875 2.015625 -1.15625 L 2.015625 -5.46875 L 3.046875 -5.46875 Z M 3.046875 -6.28125 "/>
</g>
<g id="glyph-0-14">
<path d="M 5.609375 0 L 8.078125 -7.328125 L 8.078125 0 L 9.125 0 L 9.125 -8.75 L 7.578125 -8.75 L 5.046875 -1.125 L 2.453125 -8.75 L 0.90625 -8.75 L 0.90625 0 L 1.953125 0 L 1.953125 -7.328125 L 4.4375 0 Z M 5.609375 0 "/>
</g>
<g id="glyph-0-15">
<path d="M 0.84375 -6.28125 L 0.84375 0 L 1.84375 0 L 1.84375 -3.953125 C 1.84375 -4.859375 2.515625 -5.59375 3.328125 -5.59375 C 4.0625 -5.59375 4.484375 -5.140625 4.484375 -4.328125 L 4.484375 0 L 5.5 0 L 5.5 -3.953125 C 5.5 -4.859375 6.15625 -5.59375 6.96875 -5.59375 C 7.703125 -5.59375 8.140625 -5.125 8.140625 -4.328125 L 8.140625 0 L 9.140625 0 L 9.140625 -4.71875 C 9.140625 -5.84375 8.5 -6.46875 7.3125 -6.46875 C 6.484375 -6.46875 5.96875 -6.21875 5.390625 -5.515625 C 5.015625 -6.1875 4.515625 -6.46875 3.703125 -6.46875 C 2.859375 -6.46875 2.296875 -6.15625 1.765625 -5.40625 L 1.765625 -6.28125 Z M 0.84375 -6.28125 "/>
</g>
<g id="glyph-0-16">
<path d="M 0.640625 -8.75 L 0.640625 0 L 1.546875 0 L 1.546875 -0.796875 C 2.03125 -0.078125 2.65625 0.28125 3.546875 0.28125 C 5.203125 0.28125 6.28125 -1.078125 6.28125 -3.171875 C 6.28125 -5.203125 5.25 -6.46875 3.59375 -6.46875 C 2.71875 -6.46875 2.109375 -6.140625 1.640625 -5.4375 L 1.640625 -8.75 Z M 3.390625 -5.53125 C 4.515625 -5.53125 5.234375 -4.5625 5.234375 -3.0625 C 5.234375 -1.625 4.484375 -0.65625 3.390625 -0.65625 C 2.328125 -0.65625 1.640625 -1.625 1.640625 -3.09375 C 1.640625 -4.578125 2.328125 -5.53125 3.390625 -5.53125 Z M 3.390625 -5.53125 "/>
</g>
<g id="glyph-0-17">
<path d="M 4.703125 0 L 7.734375 -8.75 L 6.546875 -8.75 L 4.125 -1.34375 L 1.5625 -8.75 L 0.359375 -8.75 L 3.5 0 Z M 4.703125 0 "/>
</g>
<g id="glyph-0-18">
<path d="M 5.6875 -2.625 L 6.59375 0 L 7.84375 0 L 4.765625 -8.75 L 3.328125 -8.75 L 0.203125 0 L 1.390625 0 L 2.3125 -2.625 Z M 5.375 -3.5625 L 2.59375 -3.5625 L 4.03125 -7.546875 Z M 5.375 -3.5625 "/>
</g>
<g id="glyph-0-19">
<path d="M 1.828125 -8.75 L 0.8125 -8.75 L 0.8125 0 L 1.828125 0 Z M 1.828125 -8.75 "/>
</g>
<g id="glyph-0-20">
<path d="M 4.65625 -6.28125 L 2.921875 -1.390625 L 1.3125 -6.28125 L 0.234375 -6.28125 L 2.359375 0.03125 L 1.984375 1.015625 C 1.8125 1.46875 1.59375 1.625 1.171875 1.625 C 1.015625 1.625 0.859375 1.609375 0.640625 1.5625 L 0.640625 2.453125 C 0.859375 2.5625 1.0625 2.609375 1.3125 2.609375 C 1.640625 2.609375 1.984375 2.515625 2.25 2.3125 C 2.5625 2.09375 2.75 1.828125 2.9375 1.3125 L 5.734375 -6.28125 Z M 4.65625 -6.28125 "/>
</g>
<g id="glyph-0-21">
<path d="M 6.078125 -1.046875 L 1.59375 -1.046875 C 1.703125 -1.765625 2.09375 -2.21875 3.125 -2.859375 L 4.328125 -3.53125 C 5.515625 -4.1875 6.125 -5.078125 6.125 -6.140625 C 6.125 -6.859375 5.84375 -7.53125 5.34375 -8 C 4.84375 -8.453125 4.21875 -8.671875 3.40625 -8.671875 C 2.328125 -8.671875 1.53125 -8.296875 1.0625 -7.546875 C 0.75 -7.09375 0.625 -6.546875 0.59375 -5.671875 L 1.65625 -5.671875 C 1.6875 -6.265625 1.765625 -6.609375 1.90625 -6.90625 C 2.1875 -7.421875 2.734375 -7.75 3.375 -7.75 C 4.328125 -7.75 5.046875 -7.0625 5.046875 -6.125 C 5.046875 -5.421875 4.65625 -4.828125 3.90625 -4.390625 L 2.796875 -3.75 C 1.015625 -2.71875 0.5 -1.90625 0.40625 -0.015625 L 6.078125 -0.015625 Z M 6.078125 -1.046875 "/>
</g>
<g id="glyph-0-22">
<path d="M 3.296875 -8.671875 C 2.515625 -8.671875 1.78125 -8.3125 1.34375 -7.734375 C 0.796875 -6.953125 0.515625 -5.8125 0.515625 -4.203125 C 0.515625 -1.265625 1.46875 0.28125 3.296875 0.28125 C 5.09375 0.28125 6.078125 -1.265625 6.078125 -4.125 C 6.078125 -5.8125 5.8125 -6.9375 5.25 -7.734375 C 4.8125 -8.328125 4.109375 -8.671875 3.296875 -8.671875 Z M 3.296875 -7.734375 C 4.4375 -7.734375 5 -6.578125 5 -4.21875 C 5 -1.75 4.453125 -0.59375 3.28125 -0.59375 C 2.15625 -0.59375 1.59375 -1.796875 1.59375 -4.1875 C 1.59375 -6.578125 2.15625 -7.734375 3.296875 -7.734375 Z M 3.296875 -7.734375 "/>
</g>
<g id="glyph-0-23">
<path d="M 3.109375 -6.1875 L 3.109375 0 L 4.15625 0 L 4.15625 -8.671875 L 3.46875 -8.671875 C 3.09375 -7.34375 2.859375 -7.15625 1.21875 -6.953125 L 1.21875 -6.1875 Z M 3.109375 -6.1875 "/>
</g>
<g id="glyph-0-24">
<path d="M 5.71875 -8.515625 L 1.3125 -8.515625 L 0.6875 -3.875 L 1.65625 -3.875 C 2.140625 -4.46875 2.5625 -4.671875 3.234375 -4.671875 C 4.375 -4.671875 5.078125 -3.890625 5.078125 -2.625 C 5.078125 -1.40625 4.375 -0.65625 3.21875 -0.65625 C 2.296875 -0.65625 1.734375 -1.125 1.46875 -2.09375 L 0.421875 -2.09375 C 0.5625 -1.390625 0.6875 -1.0625 0.9375 -0.75 C 1.421875 -0.09375 2.28125 0.28125 3.234375 0.28125 C 4.953125 0.28125 6.15625 -0.96875 6.15625 -2.765625 C 6.15625 -4.453125 5.046875 -5.609375 3.40625 -5.609375 C 2.8125 -5.609375 2.328125 -5.453125 1.84375 -5.09375 L 2.171875 -7.46875 L 5.71875 -7.46875 Z M 5.71875 -8.515625 "/>
</g>
<g id="glyph-0-25">
<path d="M 2.078125 -8.75 L 0.953125 -8.75 L 0.953125 0 L 6.390625 0 L 6.390625 -0.984375 L 2.078125 -0.984375 Z M 2.078125 -8.75 "/>
</g>
<g id="glyph-0-26">
<path d="M 1.6875 -8.75 L 0.703125 -8.75 L 0.703125 0 L 1.6875 0 L 1.6875 -2.453125 L 2.65625 -3.40625 L 4.78125 0 L 6.03125 0 L 3.453125 -4.109375 L 5.640625 -6.28125 L 4.359375 -6.28125 L 1.6875 -3.625 Z M 1.6875 -8.75 "/>
</g>
<g id="glyph-0-27">
<path d="M 7.15625 -6.1875 C 7.15625 -6.78125 7.109375 -6.953125 6.921875 -7.359375 C 6.4375 -8.359375 5.421875 -8.890625 3.953125 -8.890625 C 2.03125 -8.890625 0.84375 -7.90625 0.84375 -6.328125 C 0.84375 -5.25 1.40625 -4.578125 2.5625 -4.28125 L 4.734375 -3.703125 C 5.84375 -3.421875 6.34375 -2.96875 6.34375 -2.296875 C 6.34375 -1.828125 6.078125 -1.34375 5.71875 -1.078125 C 5.359375 -0.828125 4.8125 -0.703125 4.109375 -0.703125 C 3.140625 -0.703125 2.515625 -0.9375 2.09375 -1.4375 C 1.765625 -1.828125 1.625 -2.25 1.625 -2.78125 L 0.578125 -2.78125 C 0.59375 -1.984375 0.75 -1.453125 1.09375 -0.96875 C 1.6875 -0.140625 2.703125 0.28125 4.03125 0.28125 C 5.078125 0.28125 5.921875 0.03125 6.484375 -0.390625 C 7.078125 -0.859375 7.453125 -1.640625 7.453125 -2.40625 C 7.453125 -3.484375 6.78125 -4.265625 5.59375 -4.59375 L 3.390625 -5.1875 C 2.34375 -5.46875 1.953125 -5.8125 1.953125 -6.484375 C 1.953125 -7.375 2.734375 -7.953125 3.90625 -7.953125 C 5.296875 -7.953125 6.078125 -7.328125 6.09375 -6.1875 Z M 7.15625 -6.1875 "/>
</g>
<g id="glyph-0-28">
<path d="M 0.640625 -1.984375 C 0.84375 -0.5625 1.75 0.28125 3.046875 0.28125 C 4 0.28125 4.84375 -0.1875 5.34375 -0.953125 C 5.875 -1.8125 6.109375 -2.875 6.109375 -4.4375 C 6.109375 -5.90625 5.890625 -6.828125 5.390625 -7.59375 C 4.921875 -8.296875 4.171875 -8.671875 3.234375 -8.671875 C 1.625 -8.671875 0.453125 -7.46875 0.453125 -5.78125 C 0.453125 -4.1875 1.53125 -3.0625 3.078125 -3.0625 C 3.875 -3.0625 4.46875 -3.34375 5.015625 -4.015625 C 5 -1.84375 4.328125 -0.65625 3.125 -0.65625 C 2.375 -0.65625 1.859375 -1.140625 1.6875 -1.984375 Z M 3.234375 -7.75 C 4.21875 -7.75 4.953125 -6.921875 4.953125 -5.8125 C 4.953125 -4.734375 4.234375 -4 3.1875 -4 C 2.171875 -4 1.53125 -4.71875 1.53125 -5.875 C 1.53125 -6.953125 2.25 -7.75 3.234375 -7.75 Z M 3.234375 -7.75 "/>
</g>
<g id="glyph-0-29">
<path d="M 6.609375 -3.984375 L 6.609375 0 L 7.734375 0 L 7.734375 -8.75 L 6.609375 -8.75 L 6.609375 -4.96875 L 2.109375 -4.96875 L 2.109375 -8.75 L 1 -8.75 L 1 0 L 2.109375 0 L 2.109375 -3.984375 Z M 6.609375 -3.984375 "/>
</g>
<g id="glyph-0-30">
<path d="M 5.78125 0 L 5.78125 -6.28125 L 4.78125 -6.28125 L 4.78125 -2.71875 C 4.78125 -1.4375 4.109375 -0.59375 3.078125 -0.59375 C 2.28125 -0.59375 1.78125 -1.078125 1.78125 -1.84375 L 1.78125 -6.28125 L 0.78125 -6.28125 L 0.78125 -1.4375 C 0.78125 -0.390625 1.5625 0.28125 2.78125 0.28125 C 3.703125 0.28125 4.296875 -0.046875 4.890625 -0.875 L 4.890625 0 Z M 5.78125 0 "/>
</g>
<g id="glyph-0-31">
<path d="M 2.328125 -8.75 L 1.203125 -8.75 L 1.203125 0 L 2.328125 0 Z M 2.328125 -8.75 "/>
</g>
<g id="glyph-0-32">
<path d="M 5.65625 -4.171875 C 5.609375 -4.78125 5.46875 -5.1875 5.234375 -5.53125 C 4.796875 -6.125 4.046875 -6.46875 3.171875 -6.46875 C 1.46875 -6.46875 0.375 -5.125 0.375 -3.03125 C 0.375 -1.015625 1.453125 0.28125 3.15625 0.28125 C 4.65625 0.28125 5.609375 -0.625 5.71875 -2.15625 L 4.71875 -2.15625 C 4.546875 -1.15625 4.03125 -0.640625 3.1875 -0.640625 C 2.078125 -0.640625 1.421875 -1.546875 1.421875 -3.03125 C 1.421875 -4.609375 2.0625 -5.546875 3.15625 -5.546875 C 4 -5.546875 4.53125 -5.046875 4.640625 -4.171875 Z M 5.65625 -4.171875 "/>
</g>
<g id="glyph-0-33">
<path d="M 2.234375 -3.765625 L 5.109375 -3.765625 C 6.109375 -3.765625 6.546875 -3.28125 6.546875 -2.203125 L 6.546875 -1.421875 C 6.546875 -0.890625 6.640625 -0.359375 6.796875 0 L 8.140625 0 L 8.140625 -0.28125 C 7.734375 -0.5625 7.640625 -0.875 7.625 -2.046875 C 7.609375 -3.484375 7.375 -3.90625 6.4375 -4.3125 C 7.421875 -4.8125 7.8125 -5.40625 7.8125 -6.40625 C 7.8125 -7.921875 6.875 -8.75 5.140625 -8.75 L 1.109375 -8.75 L 1.109375 0 L 2.234375 0 Z M 2.234375 -4.75 L 2.234375 -7.765625 L 4.9375 -7.765625 C 5.5625 -7.765625 5.921875 -7.671875 6.1875 -7.421875 C 6.484375 -7.171875 6.640625 -6.78125 6.640625 -6.265625 C 6.640625 -5.21875 6.125 -4.75 4.9375 -4.75 Z M 2.234375 -4.75 "/>
</g>
<g id="glyph-0-34">
<path d="M 7.9375 -6.03125 C 7.59375 -7.953125 6.484375 -8.890625 4.578125 -8.890625 C 3.390625 -8.890625 2.453125 -8.515625 1.796875 -7.796875 C 1.015625 -6.9375 0.578125 -5.6875 0.578125 -4.265625 C 0.578125 -2.828125 1.015625 -1.59375 1.84375 -0.75 C 2.515625 -0.046875 3.390625 0.28125 4.53125 0.28125 C 6.65625 0.28125 7.859375 -0.875 8.125 -3.1875 L 6.96875 -3.1875 C 6.875 -2.59375 6.75 -2.1875 6.578125 -1.84375 C 6.21875 -1.109375 5.46875 -0.703125 4.53125 -0.703125 C 2.796875 -0.703125 1.6875 -2.09375 1.6875 -4.28125 C 1.6875 -6.53125 2.734375 -7.90625 4.4375 -7.90625 C 5.140625 -7.90625 5.8125 -7.703125 6.171875 -7.359375 C 6.484375 -7.0625 6.671875 -6.703125 6.796875 -6.03125 Z M 7.9375 -6.03125 "/>
</g>
<g id="glyph-0-35">
<path d="M 3.5 -3.25 L 5.609375 -6.28125 L 4.484375 -6.28125 L 2.96875 -4.015625 L 1.46875 -6.28125 L 0.328125 -6.28125 L 2.421875 -3.203125 L 0.203125 0 L 1.34375 0 L 2.9375 -2.40625 L 4.515625 0 L 5.671875 0 Z M 3.5 -3.25 "/>
</g>
<g id="glyph-0-36">
<path d="M 2.296875 -1.25 L 1.046875 -1.25 L 1.046875 0 L 2.296875 0 Z M 2.296875 -1.25 "/>
</g>
<g id="glyph-0-37">
<path d="M 2.65625 -4 L 3.234375 -4 C 4.375 -4 4.984375 -3.453125 4.984375 -2.40625 C 4.984375 -1.3125 4.328125 -0.65625 3.234375 -0.65625 C 2.078125 -0.65625 1.515625 -1.25 1.4375 -2.515625 L 0.390625 -2.515625 C 0.4375 -1.828125 0.546875 -1.375 0.75 -0.984375 C 1.203125 -0.140625 2.03125 0.28125 3.1875 0.28125 C 4.9375 0.28125 6.078125 -0.78125 6.078125 -2.421875 C 6.078125 -3.53125 5.65625 -4.125 4.625 -4.484375 C 5.421875 -4.8125 5.8125 -5.40625 5.8125 -6.28125 C 5.8125 -7.78125 4.84375 -8.671875 3.234375 -8.671875 C 1.515625 -8.671875 0.59375 -7.71875 0.5625 -5.875 L 1.625 -5.875 C 1.625 -6.40625 1.6875 -6.703125 1.8125 -6.96875 C 2.046875 -7.46875 2.578125 -7.75 3.234375 -7.75 C 4.171875 -7.75 4.734375 -7.1875 4.734375 -6.25 C 4.734375 -5.640625 4.53125 -5.265625 4.0625 -5.0625 C 3.765625 -4.9375 3.390625 -4.890625 2.65625 -4.890625 Z M 2.65625 -4 "/>
</g>
<g id="glyph-0-38">
<path d="M 3.921875 -2.09375 L 3.921875 0 L 4.984375 0 L 4.984375 -2.09375 L 6.234375 -2.09375 L 6.234375 -3.046875 L 4.984375 -3.046875 L 4.984375 -8.671875 L 4.203125 -8.671875 L 0.34375 -3.21875 L 0.34375 -2.09375 Z M 3.921875 -3.046875 L 1.265625 -3.046875 L 3.921875 -6.875 Z M 3.921875 -3.046875 "/>
</g>
<g id="glyph-0-39">
<path d="M 5.96875 -6.421875 C 5.765625 -7.84375 4.859375 -8.671875 3.5625 -8.671875 C 2.625 -8.671875 1.78125 -8.21875 1.28125 -7.4375 C 0.75 -6.59375 0.515625 -5.53125 0.515625 -3.953125 C 0.515625 -2.5 0.71875 -1.578125 1.234375 -0.796875 C 1.6875 -0.09375 2.4375 0.28125 3.375 0.28125 C 4.984375 0.28125 6.15625 -0.9375 6.15625 -2.625 C 6.15625 -4.21875 5.078125 -5.359375 3.546875 -5.359375 C 2.71875 -5.359375 2.046875 -5.046875 1.59375 -4.40625 C 1.609375 -6.546875 2.28125 -7.734375 3.484375 -7.734375 C 4.234375 -7.734375 4.75 -7.265625 4.921875 -6.421875 Z M 3.421875 -4.421875 C 4.4375 -4.421875 5.078125 -3.703125 5.078125 -2.546875 C 5.078125 -1.453125 4.359375 -0.65625 3.390625 -0.65625 C 2.40625 -0.65625 1.65625 -1.484375 1.65625 -2.59375 C 1.65625 -3.671875 2.375 -4.421875 3.421875 -4.421875 Z M 3.421875 -4.421875 "/>
</g>
<g id="glyph-0-40">
<path d="M 6.234375 -8.515625 L 0.546875 -8.515625 L 0.546875 -7.46875 L 5.140625 -7.46875 C 3.125 -4.578125 2.296875 -2.796875 1.65625 0 L 2.78125 0 C 3.25 -2.71875 4.3125 -5.0625 6.234375 -7.625 Z M 6.234375 -8.515625 "/>
</g>
<g id="glyph-0-41">
</g>
<g id="glyph-0-42">
<path d="M 5.3125 -6.28125 L 0.625 -6.28125 L 0.625 -5.40625 L 4.125 -5.40625 L 0.375 -0.90625 L 0.375 0 L 5.484375 0 L 5.484375 -0.875 L 1.578125 -0.875 L 5.3125 -5.40625 Z M 5.3125 -6.28125 "/>
</g>
<g id="glyph-0-43">
<path d="M 1.0625 0 L 4.4375 0 C 6.640625 0 8 -1.65625 8 -4.375 C 8 -7.09375 6.65625 -8.75 4.4375 -8.75 L 1.0625 -8.75 Z M 2.1875 -0.984375 L 2.1875 -7.765625 L 4.25 -7.765625 C 5.96875 -7.765625 6.890625 -6.59375 6.890625 -4.375 C 6.890625 -2.140625 5.96875 -0.984375 4.25 -0.984375 Z M 2.1875 -0.984375 "/>
</g>
<g id="glyph-0-44">
<path d="M 3.125 -6.28125 L 2.078125 -6.28125 L 2.078125 -7.265625 C 2.078125 -7.6875 2.296875 -7.90625 2.765625 -7.90625 C 2.859375 -7.90625 2.890625 -7.90625 3.125 -7.890625 L 3.125 -8.71875 C 2.890625 -8.765625 2.765625 -8.78125 2.5625 -8.78125 C 1.625 -8.78125 1.078125 -8.25 1.078125 -7.359375 L 1.078125 -6.28125 L 0.234375 -6.28125 L 0.234375 -5.46875 L 1.078125 -5.46875 L 1.078125 0 L 2.078125 0 L 2.078125 -5.46875 L 3.125 -5.46875 Z M 6.34375 -6.28125 L 5.296875 -6.28125 L 5.296875 -7.265625 C 5.296875 -7.6875 5.53125 -7.90625 6 -7.90625 C 6.078125 -7.90625 6.125 -7.90625 6.34375 -7.890625 L 6.34375 -8.71875 C 6.125 -8.765625 5.984375 -8.78125 5.78125 -8.78125 C 4.859375 -8.78125 4.3125 -8.25 4.3125 -7.359375 L 4.3125 -6.28125 L 3.46875 -6.28125 L 3.46875 -5.46875 L 4.3125 -5.46875 L 4.3125 0 L 5.296875 0 L 5.296875 -5.46875 L 6.34375 -5.46875 Z M 6.34375 -6.28125 "/>
</g>
</g>
<clipPath id="clip-0">
<path clip-rule="nonzero" d="M 149.738281 457 L 545.757812 457 L 545.757812 459 L 149.738281 459 Z M 149.738281 457 "/>
</clipPath>
<clipPath id="clip-1">
<path clip-rule="nonzero" d="M 149.738281 413 L 545.757812 413 L 545.757812 415 L 149.738281 415 Z M 149.738281 413 "/>
</clipPath>
<clipPath id="clip-2">
<path clip-rule="nonzero" d="M 149.738281 369 L 545.757812 369 L 545.757812 370 L 149.738281 370 Z M 149.738281 369 "/>
</clipPath>
<clipPath id="clip-3">
<path clip-rule="nonzero" d="M 149.738281 324 L 545.757812 324 L 545.757812 326 L 149.738281 326 Z M 149.738281 324 "/>
</clipPath>
<clipPath id="clip-4">
<path clip-rule="nonzero" d="M 149.738281 280 L 545.757812 280 L 545.757812 282 L 149.738281 282 Z M 149.738281 280 "/>
</clipPath>
<clipPath id="clip-5">
<path clip-rule="nonzero" d="M 149.738281 236 L 545.757812 236 L 545.757812 237 L 149.738281 237 Z M 149.738281 236 "/>
</clipPath>
<clipPath id="clip-6">
<path clip-rule="nonzero" d="M 149.738281 191 L 545.757812 191 L 545.757812 193 L 149.738281 193 Z M 149.738281 191 "/>
</clipPath>
<clipPath id="clip-7">
<path clip-rule="nonzero" d="M 149.738281 147 L 545.757812 147 L 545.757812 149 L 149.738281 149 Z M 149.738281 147 "/>
</clipPath>
<clipPath id="clip-8">
<path clip-rule="nonzero" d="M 149.738281 103 L 545.757812 103 L 545.757812 104 L 149.738281 104 Z M 149.738281 103 "/>
</clipPath>
<clipPath id="clip-9">
<path clip-rule="nonzero" d="M 164 59.039062 L 165 59.039062 L 165 502.558594 L 164 502.558594 Z M 164 59.039062 "/>
</clipPath>
<clipPath id="clip-10">
<path clip-rule="nonzero" d="M 215 59.039062 L 216 59.039062 L 216 502.558594 L 215 502.558594 Z M 215 59.039062 "/>
</clipPath>
<clipPath id="clip-11">
<path clip-rule="nonzero" d="M 189 59.039062 L 191 59.039062 L 191 502.558594 L 189 502.558594 Z M 189 59.039062 "/>
</clipPath>
</defs>
<rect x="-57.6" y="-57.6" width="691.2" height="691.2" fill="rgb(100%, 100%, 100%)" fill-opacity="1"/>
<g fill="rgb(0%, 0%, 0%)" fill-opacity="1">
<use xlink:href="#glyph-0-0" x="27.539062" y="462.455078"/>
<use xlink:href="#glyph-0-1" x="36.539062" y="462.455078"/>
<use xlink:href="#glyph-0-2" x="42.539062" y="462.455078"/>
<use xlink:href="#glyph-0-3" x="49.539062" y="462.455078"/>
<use xlink:href="#glyph-0-4" x="56.539062" y="462.455078"/>
<use xlink:href="#glyph-0-5" x="64.539062" y="462.455078"/>
<use xlink:href="#glyph-0-6" x="71.539062" y="462.455078"/>
<use xlink:href="#glyph-0-7" x="78.539062" y="462.455078"/>
<use xlink:href="#glyph-0-2" x="85.539062" y="462.455078"/>
</g>
<g fill="rgb(0%, 0%, 0%)" fill-opacity="1">
<use xlink:href="#glyph-0-8" x="27.539062" y="418.103516"/>
<use xlink:href="#glyph-0-9" x="36.539062" y="418.103516"/>
<use xlink:href="#glyph-0-10" x="40.539062" y="418.103516"/>
<use xlink:href="#glyph-0-11" x="47.539062" y="418.103516"/>
<use xlink:href="#glyph-0-7" x="54.539062" y="418.103516"/>
<use xlink:href="#glyph-0-12" x="61.539062" y="418.103516"/>
<use xlink:href="#glyph-0-1" x="64.539062" y="418.103516"/>
<use xlink:href="#glyph-0-11" x="70.539062" y="418.103516"/>
<use xlink:href="#glyph-0-13" x="77.539062" y="418.103516"/>
<use xlink:href="#glyph-0-12" x="80.539062" y="418.103516"/>
<use xlink:href="#glyph-0-6" x="83.539062" y="418.103516"/>
<use xlink:href="#glyph-0-7" x="90.539062" y="418.103516"/>
<use xlink:href="#glyph-0-14" x="97.539062" y="418.103516"/>
<use xlink:href="#glyph-0-2" x="107.539062" y="418.103516"/>
<use xlink:href="#glyph-0-15" x="114.539062" y="418.103516"/>
<use xlink:href="#glyph-0-16" x="124.539062" y="418.103516"/>
<use xlink:href="#glyph-0-2" x="131.539062" y="418.103516"/>
<use xlink:href="#glyph-0-9" x="138.539062" y="418.103516"/>
</g>
<g fill="rgb(0%, 0%, 0%)" fill-opacity="1">
<use xlink:href="#glyph-0-17" x="27.539062" y="373.751953"/>
<use xlink:href="#glyph-0-6" x="34.539062" y="373.751953"/>
<use xlink:href="#glyph-0-13" x="41.539062" y="373.751953"/>
<use xlink:href="#glyph-0-2" x="44.539062" y="373.751953"/>
<use xlink:href="#glyph-0-3" x="51.539062" y="373.751953"/>
<use xlink:href="#glyph-0-18" x="58.539062" y="373.751953"/>
<use xlink:href="#glyph-0-1" x="66.539062" y="373.751953"/>
<use xlink:href="#glyph-0-1" x="72.539062" y="373.751953"/>
<use xlink:href="#glyph-0-2" x="78.539062" y="373.751953"/>
<use xlink:href="#glyph-0-15" x="85.539062" y="373.751953"/>
<use xlink:href="#glyph-0-16" x="95.539062" y="373.751953"/>
<use xlink:href="#glyph-0-19" x="102.539062" y="373.751953"/>
<use xlink:href="#glyph-0-20" x="105.539062" y="373.751953"/>
<use xlink:href="#glyph-0-21" x="111.539062" y="373.751953"/>
<use xlink:href="#glyph-0-22" x="118.539062" y="373.751953"/>
<use xlink:href="#glyph-0-23" x="125.539062" y="373.751953"/>
<use xlink:href="#glyph-0-24" x="132.539062" y="373.751953"/>
</g>
<g fill="rgb(0%, 0%, 0%)" fill-opacity="1">
<use xlink:href="#glyph-0-17" x="27.539062" y="329.400391"/>
<use xlink:href="#glyph-0-6" x="34.539062" y="329.400391"/>
<use xlink:href="#glyph-0-13" x="41.539062" y="329.400391"/>
<use xlink:href="#glyph-0-2" x="44.539062" y="329.400391"/>
<use xlink:href="#glyph-0-3" x="51.539062" y="329.400391"/>
<use xlink:href="#glyph-0-25" x="58.539062" y="329.400391"/>
<use xlink:href="#glyph-0-6" x="65.539062" y="329.400391"/>
<use xlink:href="#glyph-0-26" x="72.539062" y="329.400391"/>
<use xlink:href="#glyph-0-27" x="78.539062" y="329.400391"/>
<use xlink:href="#glyph-0-11" x="86.539062" y="329.400391"/>
<use xlink:href="#glyph-0-16" x="93.539062" y="329.400391"/>
<use xlink:href="#glyph-0-5" x="100.539062" y="329.400391"/>
<use xlink:href="#glyph-0-11" x="107.539062" y="329.400391"/>
<use xlink:href="#glyph-0-21" x="114.539062" y="329.400391"/>
<use xlink:href="#glyph-0-22" x="121.539062" y="329.400391"/>
<use xlink:href="#glyph-0-23" x="128.539062" y="329.400391"/>
<use xlink:href="#glyph-0-28" x="135.539062" y="329.400391"/>
</g>
<g fill="rgb(0%, 0%, 0%)" fill-opacity="1">
<use xlink:href="#glyph-0-29" x="27.539062" y="285.048828"/>
<use xlink:href="#glyph-0-6" x="36.539062" y="285.048828"/>
<use xlink:href="#glyph-0-30" x="43.539062" y="285.048828"/>
<use xlink:href="#glyph-0-1" x="50.539062" y="285.048828"/>
<use xlink:href="#glyph-0-2" x="56.539062" y="285.048828"/>
<use xlink:href="#glyph-0-5" x="63.539062" y="285.048828"/>
<use xlink:href="#glyph-0-6" x="70.539062" y="285.048828"/>
<use xlink:href="#glyph-0-19" x="77.539062" y="285.048828"/>
<use xlink:href="#glyph-0-3" x="80.539062" y="285.048828"/>
<use xlink:href="#glyph-0-31" x="87.539062" y="285.048828"/>
<use xlink:href="#glyph-0-7" x="90.539062" y="285.048828"/>
<use xlink:href="#glyph-0-32" x="97.539062" y="285.048828"/>
<use xlink:href="#glyph-0-6" x="103.539062" y="285.048828"/>
<use xlink:href="#glyph-0-15" x="110.539062" y="285.048828"/>
<use xlink:href="#glyph-0-2" x="120.539062" y="285.048828"/>
</g>
<g fill="rgb(0%, 0%, 0%)" fill-opacity="1">
<use xlink:href="#glyph-0-33" x="27.539062" y="240.697266"/>
<use xlink:href="#glyph-0-2" x="36.539062" y="240.697266"/>
<use xlink:href="#glyph-0-19" x="43.539062" y="240.697266"/>
<use xlink:href="#glyph-0-12" x="46.539062" y="240.697266"/>
<use xlink:href="#glyph-0-10" x="49.539062" y="240.697266"/>
<use xlink:href="#glyph-0-12" x="56.539062" y="240.697266"/>
<use xlink:href="#glyph-0-6" x="59.539062" y="240.697266"/>
<use xlink:href="#glyph-0-7" x="66.539062" y="240.697266"/>
</g>
<g fill="rgb(0%, 0%, 0%)" fill-opacity="1">
<use xlink:href="#glyph-0-34" x="27.539062" y="196.345703"/>
<use xlink:href="#glyph-0-11" x="35.539062" y="196.345703"/>
<use xlink:href="#glyph-0-1" x="42.539062" y="196.345703"/>
<use xlink:href="#glyph-0-13" x="48.539062" y="196.345703"/>
<use xlink:href="#glyph-0-2" x="51.539062" y="196.345703"/>
</g>
<g fill="rgb(0%, 0%, 0%)" fill-opacity="1">
<use xlink:href="#glyph-0-27" x="27.539062" y="151.990234"/>
<use xlink:href="#glyph-0-2" x="35.539062" y="151.990234"/>
<use xlink:href="#glyph-0-35" x="41.539062" y="151.990234"/>
</g>
<g fill="rgb(0%, 0%, 0%)" fill-opacity="1">
<use xlink:href="#glyph-0-18" x="27.539062" y="107.638672"/>
<use xlink:href="#glyph-0-10" x="35.539062" y="107.638672"/>
<use xlink:href="#glyph-0-2" x="42.539062" y="107.638672"/>
</g>
<g clip-path="url(#clip-0)">
<path fill="none" stroke-width="0.75" stroke-linecap="round" stroke-linejoin="round" stroke="rgb(74.509804%, 74.509804%, 74.509804%)" stroke-opacity="1" stroke-dasharray="0.75 2.25" stroke-miterlimit="10" d="M 149.738281 458.207031 L 545.761719 458.207031 "/>
</g>
<g clip-path="url(#clip-1)">
<path fill="none" stroke-width="0.75" stroke-linecap="round" stroke-linejoin="round" stroke="rgb(74.509804%, 74.509804%, 74.509804%)" stroke-opacity="1" stroke-dasharray="0.75 2.25" stroke-miterlimit="10" d="M 149.738281 413.855469 L 545.761719 413.855469 "/>
</g>
<g clip-path="url(#clip-2)">
<path fill="none" stroke-width="0.75" stroke-linecap="round" stroke-linejoin="round" stroke="rgb(74.509804%, 74.509804%, 74.509804%)" stroke-opacity="1" stroke-dasharray="0.75 2.25" stroke-miterlimit="10" d="M 149.738281 369.503906 L 545.761719 369.503906 "/>
</g>
<g clip-path="url(#clip-3)">
<path fill="none" stroke-width="0.75" stroke-linecap="round" stroke-linejoin="round" stroke="rgb(74.509804%, 74.509804%, 74.509804%)" stroke-opacity="1" stroke-dasharray="0.75 2.25" stroke-miterlimit="10" d="M 149.738281 325.152344 L 545.761719 325.152344 "/>
</g>
<g clip-path="url(#clip-4)">
<path fill="none" stroke-width="0.75" stroke-linecap="round" stroke-linejoin="round" stroke="rgb(74.509804%, 74.509804%, 74.509804%)" stroke-opacity="1" stroke-dasharray="0.75 2.25" stroke-miterlimit="10" d="M 149.738281 280.800781 L 545.761719 280.800781 "/>
</g>
<g clip-path="url(#clip-5)">
<path fill="none" stroke-width="0.75" stroke-linecap="round" stroke-linejoin="round" stroke="rgb(74.509804%, 74.509804%, 74.509804%)" stroke-opacity="1" stroke-dasharray="0.75 2.25" stroke-miterlimit="10" d="M 149.738281 236.449219 L 545.761719 236.449219 "/>
</g>
<g clip-path="url(#clip-6)">
<path fill="none" stroke-width="0.75" stroke-linecap="round" stroke-linejoin="round" stroke="rgb(74.509804%, 74.509804%, 74.509804%)" stroke-opacity="1" stroke-dasharray="0.75 2.25" stroke-miterlimit="10" d="M 149.738281 192.097656 L 545.761719 192.097656 "/>
</g>
<g clip-path="url(#clip-7)">
<path fill="none" stroke-width="0.75" stroke-linecap="round" stroke-linejoin="round" stroke="rgb(74.509804%, 74.509804%, 74.509804%)" stroke-opacity="1" stroke-dasharray="0.75 2.25" stroke-miterlimit="10" d="M 149.738281 147.742188 L 545.761719 147.742188 "/>
</g>
<g clip-path="url(#clip-8)">
<path fill="none" stroke-width="0.75" stroke-linecap="round" stroke-linejoin="round" stroke="rgb(74.509804%, 74.509804%, 74.509804%)" stroke-opacity="1" stroke-dasharray="0.75 2.25" stroke-miterlimit="10" d="M 149.738281 103.390625 L 545.761719 103.390625 "/>
</g>
<path fill="none" stroke-width="0.75" stroke-linecap="round" stroke-linejoin="round" stroke="rgb(0%, 0%, 0%)" stroke-opacity="1" stroke-miterlimit="10" d="M 164.40625 502.558594 L 521.664062 502.558594 "/>
<path fill="none" stroke-width="0.75" stroke-linecap="round" stroke-linejoin="round" stroke="rgb(0%, 0%, 0%)" stroke-opacity="1" stroke-miterlimit="10" d="M 164.40625 502.558594 L 164.40625 509.761719 "/>
<path fill="none" stroke-width="0.75" stroke-linecap="round" stroke-linejoin="round" stroke="rgb(0%, 0%, 0%)" stroke-opacity="1" stroke-miterlimit="10" d="M 215.445312 502.558594 L 215.445312 509.761719 "/>
<path fill="none" stroke-width="0.75" stroke-linecap="round" stroke-linejoin="round" stroke="rgb(0%, 0%, 0%)" stroke-opacity="1" stroke-miterlimit="10" d="M 266.480469 502.558594 L 266.480469 509.761719 "/>
<path fill="none" stroke-width="0.75" stroke-linecap="round" stroke-linejoin="round" stroke="rgb(0%, 0%, 0%)" stroke-opacity="1" stroke-miterlimit="10" d="M 317.519531 502.558594 L 317.519531 509.761719 "/>
<path fill="none" stroke-width="0.75" stroke-linecap="round" stroke-linejoin="round" stroke="rgb(0%, 0%, 0%)" stroke-opacity="1" stroke-miterlimit="10" d="M 368.554688 502.558594 L 368.554688 509.761719 "/>
<path fill="none" stroke-width="0.75" stroke-linecap="round" stroke-linejoin="round" stroke="rgb(0%, 0%, 0%)" stroke-opacity="1" stroke-miterlimit="10" d="M 419.59375 502.558594 L 419.59375 509.761719 "/>
<path fill="none" stroke-width="0.75" stroke-linecap="round" stroke-linejoin="round" stroke="rgb(0%, 0%, 0%)" stroke-opacity="1" stroke-miterlimit="10" d="M 470.628906 502.558594 L 470.628906 509.761719 "/>
<path fill="none" stroke-width="0.75" stroke-linecap="round" stroke-linejoin="round" stroke="rgb(0%, 0%, 0%)" stroke-opacity="1" stroke-miterlimit="10" d="M 521.664062 502.558594 L 521.664062 509.761719 "/>
<g fill="rgb(0%, 0%, 0%)" fill-opacity="1">
<use xlink:href="#glyph-0-22" x="155.90625" y="528.228516"/>
<use xlink:href="#glyph-0-36" x="162.90625" y="528.228516"/>
<use xlink:href="#glyph-0-22" x="165.90625" y="528.228516"/>
</g>
<g fill="rgb(0%, 0%, 0%)" fill-opacity="1">
<use xlink:href="#glyph-0-22" x="206.945312" y="528.228516"/>
<use xlink:href="#glyph-0-36" x="213.945312" y="528.228516"/>
<use xlink:href="#glyph-0-23" x="216.945312" y="528.228516"/>
</g>
<g fill="rgb(0%, 0%, 0%)" fill-opacity="1">
<use xlink:href="#glyph-0-22" x="257.980469" y="528.228516"/>
<use xlink:href="#glyph-0-36" x="264.980469" y="528.228516"/>
<use xlink:href="#glyph-0-21" x="267.980469" y="528.228516"/>
</g>
<g fill="rgb(0%, 0%, 0%)" fill-opacity="1">
<use xlink:href="#glyph-0-22" x="309.019531" y="528.228516"/>
<use xlink:href="#glyph-0-36" x="316.019531" y="528.228516"/>
<use xlink:href="#glyph-0-37" x="319.019531" y="528.228516"/>
</g>
<g fill="rgb(0%, 0%, 0%)" fill-opacity="1">
<use xlink:href="#glyph-0-22" x="360.054688" y="528.228516"/>
<use xlink:href="#glyph-0-36" x="367.054688" y="528.228516"/>
<use xlink:href="#glyph-0-38" x="370.054688" y="528.228516"/>
</g>
<g fill="rgb(0%, 0%, 0%)" fill-opacity="1">
<use xlink:href="#glyph-0-22" x="411.09375" y="528.228516"/>
<use xlink:href="#glyph-0-36" x="418.09375" y="528.228516"/>
<use xlink:href="#glyph-0-24" x="421.09375" y="528.228516"/>
</g>
<g fill="rgb(0%, 0%, 0%)" fill-opacity="1">
<use xlink:href="#glyph-0-22" x="462.128906" y="528.228516"/>
<use xlink:href="#glyph-0-36" x="469.128906" y="528.228516"/>
<use xlink:href="#glyph-0-39" x="472.128906" y="528.228516"/>
</g>
<g fill="rgb(0%, 0%, 0%)" fill-opacity="1">
<use xlink:href="#glyph-0-22" x="513.164062" y="528.228516"/>
<use xlink:href="#glyph-0-36" x="520.164062" y="528.228516"/>
<use xlink:href="#glyph-0-40" x="523.164062" y="528.228516"/>
</g>
<path fill="none" stroke-width="0.75" stroke-linecap="round" stroke-linejoin="round" stroke="rgb(0%, 0%, 0%)" stroke-opacity="1" stroke-miterlimit="10" d="M 149.738281 502.558594 L 545.761719 502.558594 L 545.761719 59.039062 L 149.738281 59.039062 Z M 149.738281 502.558594 "/>
<g fill="rgb(0%, 0%, 0%)" fill-opacity="1">
<use xlink:href="#glyph-0-18" x="285.75" y="542.626953"/>
<use xlink:href="#glyph-0-16" x="293.75" y="542.626953"/>
<use xlink:href="#glyph-0-1" x="300.75" y="542.626953"/>
<use xlink:href="#glyph-0-6" x="306.75" y="542.626953"/>
<use xlink:href="#glyph-0-19" x="313.75" y="542.626953"/>
<use xlink:href="#glyph-0-30" x="316.75" y="542.626953"/>
<use xlink:href="#glyph-0-13" x="323.75" y="542.626953"/>
<use xlink:href="#glyph-0-2" x="326.75" y="542.626953"/>
<use xlink:href="#glyph-0-41" x="333.75" y="542.626953"/>
<use xlink:href="#glyph-0-27" x="336.75" y="542.626953"/>
<use xlink:href="#glyph-0-13" x="344.75" y="542.626953"/>
<use xlink:href="#glyph-0-11" x="347.75" y="542.626953"/>
<use xlink:href="#glyph-0-7" x="354.75" y="542.626953"/>
<use xlink:href="#glyph-0-3" x="361.75" y="542.626953"/>
<use xlink:href="#glyph-0-11" x="368.75" y="542.626953"/>
<use xlink:href="#glyph-0-9" x="375.75" y="542.626953"/>
<use xlink:href="#glyph-0-3" x="379.75" y="542.626953"/>
<use xlink:href="#glyph-0-12" x="386.75" y="542.626953"/>
<use xlink:href="#glyph-0-42" x="389.75" y="542.626953"/>
<use xlink:href="#glyph-0-2" x="395.75" y="542.626953"/>
<use xlink:href="#glyph-0-3" x="402.75" y="542.626953"/>
</g>
<g fill="rgb(0%, 0%, 0%)" fill-opacity="1">
<use xlink:href="#glyph-0-14" x="302.25" y="557.029297"/>
<use xlink:href="#glyph-0-2" x="312.25" y="557.029297"/>
<use xlink:href="#glyph-0-11" x="319.25" y="557.029297"/>
<use xlink:href="#glyph-0-7" x="326.25" y="557.029297"/>
<use xlink:href="#glyph-0-41" x="333.25" y="557.029297"/>
<use xlink:href="#glyph-0-43" x="336.25" y="557.029297"/>
<use xlink:href="#glyph-0-12" x="345.25" y="557.029297"/>
<use xlink:href="#glyph-0-44" x="348.25" y="557.029297"/>
<use xlink:href="#glyph-0-2" x="355.25" y="557.029297"/>
<use xlink:href="#glyph-0-9" x="362.25" y="557.029297"/>
<use xlink:href="#glyph-0-2" x="366.25" y="557.029297"/>
<use xlink:href="#glyph-0-7" x="373.25" y="557.029297"/>
<use xlink:href="#glyph-0-32" x="380.25" y="557.029297"/>
<use xlink:href="#glyph-0-2" x="386.25" y="557.029297"/>
</g>
<g clip-path="url(#clip-9)">
<path fill="none" stroke-width="0.75" stroke-linecap="round" stroke-linejoin="round" stroke="rgb(0%, 0%, 0%)" stroke-opacity="1" stroke-miterlimit="10" d="M 164.40625 502.558594 L 164.40625 59.039062 "/>
</g>
<path fill-rule="nonzero" fill="rgb(100%, 100%, 100%)" fill-opacity="1" stroke-width="0.75" stroke-linecap="round" stroke-linejoin="round" stroke="rgb(0%, 0%, 0%)" stroke-opacity="1" stroke-miterlimit="10" d="M 167.105469 458.207031 C 167.105469 461.808594 161.707031 461.808594 161.707031 458.207031 C 161.707031 454.609375 167.105469 454.609375 167.105469 458.207031 "/>
<path fill-rule="nonzero" fill="rgb(100%, 100%, 100%)" fill-opacity="1" stroke-width="0.75" stroke-linecap="round" stroke-linejoin="round" stroke="rgb(0%, 0%, 0%)" stroke-opacity="1" stroke-miterlimit="10" d="M 427.070312 413.855469 C 427.070312 417.457031 421.671875 417.457031 421.671875 413.855469 C 421.671875 410.257812 427.070312 410.257812 427.070312 413.855469 "/>
<path fill-rule="nonzero" fill="rgb(100%, 100%, 100%)" fill-opacity="1" stroke-width="0.75" stroke-linecap="round" stroke-linejoin="round" stroke="rgb(0%, 0%, 0%)" stroke-opacity="1" stroke-miterlimit="10" d="M 243.957031 369.503906 C 243.957031 373.105469 238.554688 373.105469 238.554688 369.503906 C 238.554688 365.902344 243.957031 365.902344 243.957031 369.503906 "/>
<path fill-rule="nonzero" fill="rgb(100%, 100%, 100%)" fill-opacity="1" stroke-width="0.75" stroke-linecap="round" stroke-linejoin="round" stroke="rgb(0%, 0%, 0%)" stroke-opacity="1" stroke-miterlimit="10" d="M 301.683594 325.152344 C 301.683594 328.753906 296.285156 328.753906 296.285156 325.152344 C 296.285156 321.550781 301.683594 321.550781 301.683594 325.152344 "/>
<path fill-rule="nonzero" fill="rgb(100%, 100%, 100%)" fill-opacity="1" stroke-width="0.75" stroke-linecap="round" stroke-linejoin="round" stroke="rgb(0%, 0%, 0%)" stroke-opacity="1" stroke-miterlimit="10" d="M 455.933594 280.800781 C 455.933594 284.398438 450.535156 284.398438 450.535156 280.800781 C 450.535156 277.199219 455.933594 277.199219 455.933594 280.800781 "/>
<path fill-rule="nonzero" fill="rgb(100%, 100%, 100%)" fill-opacity="1" stroke-width="0.75" stroke-linecap="round" stroke-linejoin="round" stroke="rgb(0%, 0%, 0%)" stroke-opacity="1" stroke-miterlimit="10" d="M 211.042969 236.449219 C 211.042969 240.046875 205.644531 240.046875 205.644531 236.449219 C 205.644531 232.847656 211.042969 232.847656 211.042969 236.449219 "/>
<path fill-rule="nonzero" fill="rgb(100%, 100%, 100%)" fill-opacity="1" stroke-width="0.75" stroke-linecap="round" stroke-linejoin="round" stroke="rgb(0%, 0%, 0%)" stroke-opacity="1" stroke-miterlimit="10" d="M 233.910156 192.097656 C 233.910156 195.695312 228.507812 195.695312 228.507812 192.097656 C 228.507812 188.496094 233.910156 188.496094 233.910156 192.097656 "/>
<path fill-rule="nonzero" fill="rgb(100%, 100%, 100%)" fill-opacity="1" stroke-width="0.75" stroke-linecap="round" stroke-linejoin="round" stroke="rgb(0%, 0%, 0%)" stroke-opacity="1" stroke-miterlimit="10" d="M 219.875 147.742188 C 219.875 151.34375 214.472656 151.34375 214.472656 147.742188 C 214.472656 144.144531 219.875 144.144531 219.875 147.742188 "/>
<path fill-rule="nonzero" fill="rgb(100%, 100%, 100%)" fill-opacity="1" stroke-width="0.75" stroke-linecap="round" stroke-linejoin="round" stroke="rgb(0%, 0%, 0%)" stroke-opacity="1" stroke-miterlimit="10" d="M 533.792969 103.390625 C 533.792969 106.992188 528.394531 106.992188 528.394531 103.390625 C 528.394531 99.792969 533.792969 99.792969 533.792969 103.390625 "/>
<path fill-rule="nonzero" fill="rgb(0%, 0%, 0%)" fill-opacity="1" stroke-width="0.75" stroke-linecap="round" stroke-linejoin="round" stroke="rgb(0%, 0%, 0%)" stroke-opacity="1" stroke-miterlimit="10" d="M 167.105469 458.207031 C 167.105469 461.808594 161.707031 461.808594 161.707031 458.207031 C 161.707031 454.609375 167.105469 454.609375 167.105469 458.207031 "/>
<path fill-rule="nonzero" fill="rgb(0%, 0%, 0%)" fill-opacity="1" stroke-width="0.75" stroke-linecap="round" stroke-linejoin="round" stroke="rgb(0%, 0%, 0%)" stroke-opacity="1" stroke-miterlimit="10" d="M 178.019531 413.855469 C 178.019531 417.457031 172.617188 417.457031 172.617188 413.855469 C 172.617188 410.257812 178.019531 410.257812 178.019531 413.855469 "/>
<path fill-rule="nonzero" fill="rgb(0%, 0%, 0%)" fill-opacity="1" stroke-width="0.75" stroke-linecap="round" stroke-linejoin="round" stroke="rgb(0%, 0%, 0%)" stroke-opacity="1" stroke-miterlimit="10" d="M 183.289062 369.503906 C 183.289062 373.105469 177.890625 373.105469 177.890625 369.503906 C 177.890625 365.902344 183.289062 365.902344 183.289062 369.503906 "/>
<path fill-rule="nonzero" fill="rgb(0%, 0%, 0%)" fill-opacity="1" stroke-width="0.75" stroke-linecap="round" stroke-linejoin="round" stroke="rgb(0%, 0%, 0%)" stroke-opacity="1" stroke-miterlimit="10" d="M 191.886719 325.152344 C 191.886719 328.753906 186.488281 328.753906 186.488281 325.152344 C 186.488281 321.550781 191.886719 321.550781 191.886719 325.152344 "/>
<path fill-rule="nonzero" fill="rgb(0%, 0%, 0%)" fill-opacity="1" stroke-width="0.75" stroke-linecap="round" stroke-linejoin="round" stroke="rgb(0%, 0%, 0%)" stroke-opacity="1" stroke-miterlimit="10" d="M 192.304688 280.800781 C 192.304688 284.398438 186.902344 284.398438 186.902344 280.800781 C 186.902344 277.199219 192.304688 277.199219 192.304688 280.800781 "/>
<path fill-rule="nonzero" fill="rgb(0%, 0%, 0%)" fill-opacity="1" stroke-width="0.75" stroke-linecap="round" stroke-linejoin="round" stroke="rgb(0%, 0%, 0%)" stroke-opacity="1" stroke-miterlimit="10" d="M 185.707031 236.449219 C 185.707031 240.046875 180.304688 240.046875 180.304688 236.449219 C 180.304688 232.847656 185.707031 232.847656 185.707031 236.449219 "/>
<path fill-rule="nonzero" fill="rgb(0%, 0%, 0%)" fill-opacity="1" stroke-width="0.75" stroke-linecap="round" stroke-linejoin="round" stroke="rgb(0%, 0%, 0%)" stroke-opacity="1" stroke-miterlimit="10" d="M 179.378906 192.097656 C 179.378906 195.695312 173.976562 195.695312 173.976562 192.097656 C 173.976562 188.496094 179.378906 188.496094 179.378906 192.097656 "/>
<path fill-rule="nonzero" fill="rgb(0%, 0%, 0%)" fill-opacity="1" stroke-width="0.75" stroke-linecap="round" stroke-linejoin="round" stroke="rgb(0%, 0%, 0%)" stroke-opacity="1" stroke-miterlimit="10" d="M 183.414062 147.742188 C 183.414062 151.34375 178.015625 151.34375 178.015625 147.742188 C 178.015625 144.144531 183.414062 144.144531 183.414062 147.742188 "/>
<path fill-rule="nonzero" fill="rgb(0%, 0%, 0%)" fill-opacity="1" stroke-width="0.75" stroke-linecap="round" stroke-linejoin="round" stroke="rgb(0%, 0%, 0%)" stroke-opacity="1" stroke-miterlimit="10" d="M 187.539062 103.390625 C 187.539062 106.992188 182.140625 106.992188 182.140625 103.390625 C 182.140625 99.792969 187.539062 99.792969 187.539062 103.390625 "/>
<g clip-path="url(#clip-10)">
<path fill="none" stroke-width="0.75" stroke-linecap="round" stroke-linejoin="round" stroke="rgb(0%, 0%, 0%)" stroke-opacity="1" stroke-miterlimit="10" d="M 215.445312 502.558594 L 215.445312 59.039062 "/>
</g>
<g clip-path="url(#clip-11)">
<path fill="none" stroke-width="0.75" stroke-linecap="round" stroke-linejoin="round" stroke="rgb(0%, 0%, 0%)" stroke-opacity="1" stroke-dasharray="3 3" stroke-miterlimit="10" d="M 189.925781 502.558594 L 189.925781 59.039062 "/>
</g>
<path fill-rule="nonzero" fill="rgb(100%, 100%, 100%)" fill-opacity="1" stroke-width="0.75" stroke-linecap="round" stroke-linejoin="round" stroke="rgb(0%, 0%, 0%)" stroke-opacity="1" stroke-miterlimit="10" d="M 470.851562 452.707031 L 539.820312 452.707031 L 539.820312 495.90625 L 470.851562 495.90625 Z M 470.851562 452.707031 "/>
<path fill-rule="nonzero" fill="rgb(100%, 100%, 100%)" fill-opacity="1" stroke-width="0.75" stroke-linecap="round" stroke-linejoin="round" stroke="rgb(0%, 0%, 0%)" stroke-opacity="1" stroke-miterlimit="10" d="M 482.339844 467.105469 C 482.339844 470.707031 476.9375 470.707031 476.9375 467.105469 C 476.9375 463.507812 482.339844 463.507812 482.339844 467.105469 "/>
<path fill-rule="nonzero" fill="rgb(0%, 0%, 0%)" fill-opacity="1" stroke-width="0.75" stroke-linecap="round" stroke-linejoin="round" stroke="rgb(0%, 0%, 0%)" stroke-opacity="1" stroke-miterlimit="10" d="M 482.339844 481.507812 C 482.339844 485.105469 476.9375 485.105469 476.9375 481.507812 C 476.9375 477.90625 482.339844 477.90625 482.339844 481.507812 "/>
<g fill="rgb(0%, 0%, 0%)" fill-opacity="1">
<use xlink:href="#glyph-0-18" x="488.425781" y="471.353516"/>
<use xlink:href="#glyph-0-19" x="496.425781" y="471.353516"/>
<use xlink:href="#glyph-0-19" x="499.425781" y="471.353516"/>
</g>
<g fill="rgb(0%, 0%, 0%)" fill-opacity="1">
<use xlink:href="#glyph-0-14" x="488.425781" y="485.755859"/>
<use xlink:href="#glyph-0-11" x="498.425781" y="485.755859"/>
<use xlink:href="#glyph-0-13" x="505.425781" y="485.755859"/>
<use xlink:href="#glyph-0-32" x="508.425781" y="485.755859"/>
<use xlink:href="#glyph-0-5" x="514.425781" y="485.755859"/>
<use xlink:href="#glyph-0-2" x="521.425781" y="485.755859"/>
<use xlink:href="#glyph-0-3" x="528.425781" y="485.755859"/>
</g>
</svg>
